<?xml version="1.0" standalone="no"?>
<!DOCTYPE svg PUBLIC "-//W3C//DTD SVG 20010904//EN"
 "http://www.w3.org/TR/2001/REC-SVG-20010904/DTD/svg10.dtd">
<svg version="1.0" xmlns="http://www.w3.org/2000/svg"
 width="166.000000pt" height="166.000000pt" viewBox="0 0 166.000000 166.000000"
 preserveAspectRatio="xMidYMid meet">
<metadata>
Created by potrace 1.11, written by Peter Selinger 2001-2013
</metadata>
<g transform="translate(0.000000,166.000000) scale(0.100000,-0.100000)"
fill="#000000" stroke="none">
<path d="M705 1609 c-235 -45 -440 -184 -553 -374 -50 -86 -99 -227 -108 -317
l-7 -68 798 0 797 0 -7 63 c-4 34 -11 66 -16 71 -5 6 -79 9 -164 9 l-155 -1 0
29 c0 28 1 29 53 29 62 0 66 2 59 35 -4 25 -5 25 -117 25 l-112 0 4 25 c5 23
9 24 86 27 81 3 81 3 82 31 2 23 -2 27 -27 27 -24 0 -28 4 -28 30 0 30 -1 30
-54 30 -49 0 -54 2 -58 25 -5 22 -2 25 23 25 26 0 29 4 29 30 0 30 0 30 -56
30 -54 0 -55 0 -52 28 2 20 8 27 23 25 31 -3 33 6 26 93 -1 12 -99 48 -186 67
-71 17 -210 19 -280 6z m-80 -175 c93 -36 149 -119 148 -219 0 -95 -51 -169
-139 -203 -147 -58 -296 35 -311 193 -10 99 55 196 154 230 39 14 113 13 148
-1z"/>
<path d="M45 745 c2 -44 11 -105 20 -135 9 -30 17 -59 19 -65 1 -5 10 -24 19
-42 9 -18 17 -39 17 -48 0 -8 4 -15 8 -15 5 0 14 -12 21 -26 23 -52 116 -157
191 -216 137 -108 302 -167 468 -170 148 -2 217 15 194 48 -4 5 -16 10 -27 9
-14 0 -21 8 -23 28 l-3 27 85 0 86 0 0 29 c0 25 4 30 28 33 21 2 27 8 26 26
-1 18 4 22 30 23 145 3 141 2 144 32 3 21 9 27 28 27 20 0 24 5 24 30 0 30 -1
30 -55 30 -54 0 -55 1 -55 29 l0 29 -67 0 c-107 1 -103 0 -103 27 0 24 3 25
55 25 54 0 55 0 55 30 l0 30 116 0 115 0 -3 28 c-3 23 -8 27 -38 29 -19 1 -43
2 -52 2 -12 1 -18 9 -18 26 l0 25 129 0 c144 0 135 -5 146 83 l7 57 -148 0
c-82 1 -354 0 -604 0 -282 0 -484 4 -530 10 -41 6 -128 14 -193 18 l-117 7 5
-80z"/>
</g>
</svg>
